HIERARCHY
ROOT Hips
{
	OFFSET 0.00000 0.00000 0.00000
	CHANNELS 6 Xposition Yposition Zposition Zrotation Yrotation Xrotation 
	JOINT LHipJoint
	{
		OFFSET 0 0 0
		CHANNELS 3 Zrotation Yrotation Xrotation
		JOINT LeftUpLeg
		{
			OFFSET 1.53139 -1.83434 0.76626
			CHANNELS 3 Zrotation Yrotation Xrotation
			JOINT LeftLeg
			{
				OFFSET 2.56112 -7.03663 0.00000
				CHANNELS 3 Zrotation Yrotation Xrotation
				JOINT LeftFoot
				{
					OFFSET 2.59983 -7.14299 0.00000
					CHANNELS 3 Zrotation Yrotation Xrotation
					JOINT LeftToeBase
					{
						OFFSET 0.13742 -0.37757 2.00054
						CHANNELS 3 Zrotation Yrotation Xrotation
						End Site
						{
							OFFSET 0.00000 -0.00000 1.02897
						}
					}
				}
			}
		}
	}
	JOINT RHipJoint
	{
		OFFSET 0 0 0
		CHANNELS 3 Zrotation Yrotation Xrotation
		JOINT RightUpLeg
		{
			OFFSET -1.40122 -1.83435 0.76627
			CHANNELS 3 Zrotation Yrotation Xrotation
			JOINT RightLeg
			{
				OFFSET -2.54052 -6.98003 0.00000
				CHANNELS 3 Zrotation Yrotation Xrotation
				JOINT RightFoot
				{
					OFFSET -2.63179 -7.23079 0.00000
					CHANNELS 3 Zrotation Yrotation Xrotation
					JOINT RightToeBase
					{
						OFFSET -0.24131 -0.66299 2.03908
						CHANNELS 3 Zrotation Yrotation Xrotation
						End Site
						{
							OFFSET -0.00000 -0.00000 1.07391
						}
					}
				}
			}
		}
	}
	JOINT LowerBack
	{
		OFFSET 0 0 0
		CHANNELS 3 Zrotation Yrotation Xrotation
		JOINT Spine
		{
			OFFSET 0.01174 2.10302 -0.29778
			CHANNELS 3 Zrotation Yrotation Xrotation
			JOINT Spine1
			{
				OFFSET 0.00772 2.13227 -0.01247
				CHANNELS 3 Zrotation Yrotation Xrotation
				JOINT Neck
				{
					OFFSET 0 0 0
					CHANNELS 3 Zrotation Yrotation Xrotation
					JOINT Neck1
					{
						OFFSET -0.09219 1.60848 0.31481
						CHANNELS 3 Zrotation Yrotation Xrotation
						JOINT Head
						{
							OFFSET 0.13974 1.65456 -0.31134
							CHANNELS 3 Zrotation Yrotation Xrotation
							End Site
							{
								OFFSET 0.04742 1.69515 -0.14578
							}
						}
					}
				}
				JOINT LeftShoulder
				{
					OFFSET 0 0 0
					CHANNELS 3 Zrotation Yrotation Xrotation
					JOINT LeftArm
					{
						OFFSET 3.24909 1.02882 -0.23993
						CHANNELS 3 Zrotation Yrotation Xrotation
						JOINT LeftForeArm
						{
							OFFSET 5.32955 -0.00000 -0.00000
							CHANNELS 3 Zrotation Yrotation Xrotation
							JOINT LeftHand
							{
								OFFSET 3.69232 -0.00000 -0.00000
								CHANNELS 3 Zrotation Yrotation Xrotation
								JOINT LeftFingerBase
								{
									OFFSET 0 0 0
									CHANNELS 3 Zrotation Yrotation Xrotation
									JOINT LeftHandIndex1
									{
										OFFSET 0.53660 -0.00000 -0.00000
										CHANNELS 3 Zrotation Yrotation Xrotation
										End Site
										{
											OFFSET 0.43262 -0.00000 -0.00000
										}
									}
								}
								JOINT LThumb
								{
									OFFSET 0 0 0
									CHANNELS 3 Zrotation Yrotation Xrotation
									End Site
									{
										OFFSET 0.43922 -0.00000 0.43922
									}
								}
							}
						}
					}
				}
				JOINT RightShoulder
				{
					OFFSET 0 0 0
					CHANNELS 3 Zrotation Yrotation Xrotation
					JOINT RightArm
					{
						OFFSET -3.21387 0.93002 -0.34594
						CHANNELS 3 Zrotation Yrotation Xrotation
						JOINT RightForeArm
						{
							OFFSET -5.23431 -0.00000 0.00000
							CHANNELS 3 Zrotation Yrotation Xrotation
							JOINT RightHand
							{
								OFFSET -3.55301 -0.00000 -0.00000
								CHANNELS 3 Zrotation Yrotation Xrotation
								JOINT RightFingerBase
								{
									OFFSET 0 0 0
									CHANNELS 3 Zrotation Yrotation Xrotation
									JOINT RightHandIndex1
									{
										OFFSET -0.77252 -0.00000 -0.00000
										CHANNELS 3 Zrotation Yrotation Xrotation
										End Site
										{
											OFFSET -0.62283 -0.00000 -0.00000
										}
									}
								}
								JOINT RThumb
								{
									OFFSET 0 0 0
									CHANNELS 3 Zrotation Yrotation Xrotation
									End Site
									{
										OFFSET -0.63234 -0.00000 0.63234
									}
								}
							}
						}
					}
				}
			}
		}
	}
}
MOTION
Frames: 6
Frame Time: .0083333
-13.5918 17.7689 14.4668 0 0 0 0 0 0 -21 0 0 0 0 0 0 0 0 0 0 0 0 0 0 21 0 0 0 0 0 0 0 0 0 0 0 0 0 0 0 0 0 0 0 0 0 0 -16 0 0 21 0 0 11 0 0 0 -8 0 0 0 0 0 0 0 0 0 0 0 0 0 0 0 0 0 0 0 0 8 0 0 0 0 0 0 0 0 0 0 0 0 0 0 0 0 0
-13.5918 17.7689 14.4668 1.8991 50.1542 5.6124 0.0000 0.0000 0.0000 -23.5338 -5.1033 -5.0308 1.7235 8.2648 23.5212 0.6394 -6.6963 -14.3129 0.0007 -0.1740 -0.4781 0.0000 0.0000 0.0000 21.6345 3.2173 -9.2400 -2.8359 -10.4245 30.3626 -1.2145 0.8352 -20.5796 -0.0001 0.0593 -0.1628 -2.0869 0.3820 3.6347 -0.4409 0.3840 -2.0843 0.6874 0.2453 -4.2000 -13.4793 -7.1638 -20.6120 9.7965 -8.5638 27.9144 4.6527 -3.8114 14.0343 0.0000 0.0000 0.0000 -86.3994 7.3213 23.9235 18.0156 -28.1772 -4.5566 -0.0000 -0.0000 1.4291 22.3876 24.9960 9.8738 -7.1250 0.0000 -0.0000 -7.9056 56.5635 -2.2509 0.0000 0.0000 0.0000 90.8285 -5.6725 9.2023 -15.4314 24.7437 -3.4045 0.0000 0.0000 8.5334 -14.7790 7.5484 -1.9849 7.1250 -0.0000 -0.0000 8.7615 -22.2058 4.8559
-13.5954 17.7705 14.4668 2.0225 50.2310 5.7072 0.0000 0.0000 0.0000 -23.6069 -5.1682 -4.9993 1.7176 8.2512 23.4796 0.6366 -6.7332 -14.2857 0.0008 -0.1856 -0.5101 0.0000 0.0000 0.0000 21.5603 3.1843 -9.2773 -2.8409 -10.4329 30.3904 -1.2160 0.8191 -20.5972 -0.0001 0.0487 -0.1339 -2.1523 0.3442 3.6636 -0.4247 0.3300 -2.0713 0.7445 0.2204 -4.2020 -13.1070 -7.0625 -20.5975 9.3899 -8.4114 27.8263 4.4466 -3.7590 13.9253 0.0000 0.0000 0.0000 -86.5517 7.3004 23.5659 17.8209 -27.9273 -4.4651 -0.0000 -0.0000 1.8126 22.3059 24.7925 9.7611 -7.1250 0.0000 -0.0000 -7.9055 56.3364 -2.2073 0.0000 0.0000 0.0000 90.7963 -5.7109 9.0870 -15.2879 24.5456 -3.3446 0.0000 0.0000 8.6635 -14.6284 7.7247 -2.0093 7.1250 -0.0000 -0.0000 8.8639 -22.0320 4.9496
-13.6004 17.7712 14.4666 2.0428 50.3416 5.7427 0.0000 0.0000 0.0000 -23.5963 -5.1706 -5.0684 1.7205 8.2579 23.5003 0.6350 -6.7634 -14.2720 0.0035 -0.3801 -1.0444 0.0000 0.0000 0.0000 21.5783 3.1685 -9.3028 -2.8367 -10.4259 30.3674 -1.2119 0.6983 -20.5979 -0.0001 0.0616 -0.1693 -2.1652 0.2808 3.6626 -0.4006 0.2458 -2.0461 0.7830 0.1788 -4.1731 -13.8024 -7.2125 -20.6853 9.8228 -8.5159 27.8966 4.7261 -3.8214 14.0560 0.0000 0.0000 0.0000 -86.5913 7.3449 23.5639 17.7216 -27.7993 -4.4186 -0.0000 -0.0000 1.7349 22.3440 24.5969 9.7083 -7.1250 0.0000 -0.0000 -7.7827 56.1427 -2.1362 0.0000 0.0000 0.0000 90.7645 -5.7746 9.1852 -15.1926 24.4137 -3.3051 0.0000 0.0000 8.6945 -14.8502 7.6830 -2.0302 7.1250 -0.0000 -0.0000 8.7047 -22.0655 4.8519
-13.6039 17.7731 14.4675 2.0131 50.4153 5.7304 0.0000 0.0000 0.0000 -23.5382 -5.0669 -5.1587 1.7238 8.2653 23.5229 0.6283 -6.8956 -14.2129 0.0037 -0.3950 -1.0853 0.0000 0.0000 0.0000 21.6264 3.1605 -9.3016 -2.8315 -10.4171 30.3383 -1.2106 0.6173 -20.6117 -0.0002 0.0810 -0.2226 -2.1399 0.2524 3.6714 -0.3873 0.2095 -2.0409 0.7851 0.1601 -4.1714 -15.2462 -7.5679 -20.6310 10.5589 -8.7650 27.8588 5.2310 -3.9928 14.2005 0.0000 -0.0000 0.0000 -86.6202 7.4510 23.6429 17.6933 -27.7627 -4.4055 -0.0000 -0.0000 1.6813 22.3859 24.6584 9.7505 -7.1250 0.0000 -0.0000 -7.7641 56.2150 -2.1447 0.0000 -0.0000 0.0000 90.7552 -5.8897 9.3182 -15.1078 24.2961 -3.2702 0.0000 0.0000 8.6959 -15.0884 7.4951 -2.0141 7.1250 -0.0000 -0.0000 8.5388 -22.2480 4.7215
-13.6072 17.7751 14.4673 1.9350 50.4188 5.6615 0.0000 0.0000 0.0000 -23.4680 -5.0533 -5.1809 1.7294 8.2781 23.5619 0.6247 -6.9663 -14.1812 0.0012 -0.2262 -0.6214 0.0000 0.0000 0.0000 21.6939 3.1988 -9.2586 -2.8234 -10.4035 30.2936 -1.2102 0.6132 -20.6096 -0.0000 0.0036 -0.0099 -2.0689 0.2545 3.7055 -0.3819 0.2153 -2.0483 0.7503 0.1614 -4.1983 -13.8622 -7.2506 -20.6209 9.7520 -8.5334 27.8601 4.7021 -3.8465 14.0289 -0.0000 -0.0000 0.0000 -86.6608 7.5504 23.5559 17.6545 -27.7125 -4.3874 -0.0000 -0.0000 1.8264 22.3289 24.8747 9.8019 -7.1250 0.0000 -0.0000 -7.9160 56.4261 -2.2275 -0.0000 -0.0000 0.0000 90.8284 -6.0600 9.2382 -15.0997 24.2849 -3.2669 0.0000 0.0000 8.7511 -14.8950 7.4925 -1.9864 7.1250 -0.0000 -0.0000 8.6795 -22.2583 4.7989
